<svg width="22" height="25" viewBox="0 0 22 25" fill="none" xmlns="http://www.w3.org/2000/svg">
<path d="M9.81836 4.24316C10.573 3.91974 11.427 3.91974 12.1816 4.24316L17.3936 6.47656C17.7612 6.63411 17.9999 6.99558 18 7.39551V12.6484C18 14.5861 17.0641 16.405 15.4873 17.5312L12.1621 19.9062C11.4669 20.4026 10.5331 20.4026 9.83789 19.9062L6.5127 17.5312C4.93592 16.405 4 14.5861 4 12.6484V7.39551C4.0001 6.99558 4.23884 6.63411 4.60645 6.47656L9.81836 4.24316ZM14.625 8.95508C14.1938 8.61024 13.5638 8.68026 13.2188 9.11133L9.91797 13.2383L8.70703 12.0293C8.31654 11.639 7.68346 11.639 7.29297 12.0293C6.90249 12.4198 6.90258 13.0528 7.29297 13.4434L8.89746 15.0488C9.52963 15.681 10.5714 15.6229 11.1299 14.9248L14.7812 10.3613C15.1261 9.93007 15.0562 9.30004 14.625 8.95508Z" fill="#494F57"/>
</svg>
